<svg preserveAspectRatio="none" width="100%" height="100%" overflow="visible" style="display: block;" viewBox="0 0 19 16" fill="none" xmlns="http://www.w3.org/2000/svg">
<path id="Vector" d="M11.5165 4.21297C11.2661 3.96236 10.8594 3.96236 10.6093 4.21297L9.95999 4.86273L11.6701 6.57394L12.3197 5.92381C12.5701 5.67307 12.5701 5.26656 12.3197 5.01599L11.5165 4.21297ZM6.12739 8.69681C6.06684 8.75384 6.02766 8.83226 6.00985 8.91424L5.67072 10.6112C5.64088 10.7607 5.77263 10.8927 5.92216 10.8628L7.61797 10.5235C7.70068 10.5068 7.77666 10.4661 7.83635 10.4065L11.0627 7.17836L9.35447 5.46759L6.12739 8.69681ZM9.08733 0C4.05081 0 0.000933539 3.3194 0.000933539 7.41368C0.000933539 9.11098 0.710107 10.6661 1.88553 11.9153C1.35588 13.3232 0.251691 14.513 0.233881 14.5262C-0.00202283 14.7757 -0.064356 15.141 0.0692151 15.4529C0.176036 15.7968 0.481077 16 0.823731 16C3.01394 16 4.70976 15.0822 5.77833 14.3515C6.80664 14.6723 7.92116 14.8594 9.08733 14.8594C14.1238 14.8594 18.1737 11.54 18.1737 7.47783C18.1737 3.41564 14.1238 0 9.08733 0ZM9.08733 13.1486C8.13452 13.1486 7.19525 13.0016 6.29623 12.7166L5.48589 12.4626L4.79168 12.9526C4.28411 13.3133 3.58527 13.7146 2.74395 13.9862C3.00657 13.5542 3.25579 13.0684 3.4517 12.5516L3.82997 11.5536L3.09551 10.7737C2.45543 10.0869 1.68072 8.95344 1.68072 7.44576C1.68072 4.30029 5.00183 1.74293 9.05741 1.74293C13.1429 1.74293 16.4341 4.30029 16.4341 7.44576C16.4341 10.5912 13.1764 13.1486 9.08733 13.1486Z" fill="var(--fill-0, #747474)"/>
</svg>
