<svg preserveAspectRatio="none" width="100%" height="100%" overflow="visible" style="display: block;" viewBox="0 0 18 18" fill="none" xmlns="http://www.w3.org/2000/svg">
<path id="Vector" d="M9 10.9286C9.35534 10.9286 9.64286 10.6411 9.64286 10.2857V3.85714C9.64286 3.5018 9.35534 3.21429 9 3.21429C8.64466 3.21429 8.35714 3.50357 8.35714 3.85714V10.2857C8.35714 10.6393 8.64643 10.9286 9 10.9286ZM15.4286 0H2.57143C1.15112 0 0 1.15112 0 2.57143V15.4286C0 16.8489 1.15112 18 2.57143 18H15.4286C16.8489 18 18 16.8489 18 15.4286V2.57143C18 1.15112 16.8469 0 15.4286 0ZM16.7143 15.4286C16.7143 16.1373 16.1373 16.7143 15.4286 16.7143H2.57143C1.86268 16.7143 1.28571 16.1373 1.28571 15.4286V2.57143C1.28571 1.86268 1.86268 1.28571 2.57143 1.28571H15.4286C16.1373 1.28571 16.7143 1.86268 16.7143 2.57143V15.4286ZM9 12.5357C8.46763 12.5357 8.03571 12.9676 8.03571 13.5C8.03571 14.0324 8.46763 14.4643 9 14.4643C9.53237 14.4643 9.96429 14.0324 9.96429 13.5C9.96429 12.9676 9.53437 12.5357 9 12.5357Z" fill="var(--fill-0, #484848)"/>
</svg>
