<svg preserveAspectRatio="none" width="100%" height="100%" overflow="visible" style="display: block;" viewBox="0 0 18 18" fill="none" xmlns="http://www.w3.org/2000/svg">
<path id="Vector" d="M4.31367 16.5621C4.28203 16.5621 4.25039 16.5938 4.21875 16.5938C2.51016 16.5938 1.125 15.2086 1.125 13.5C1.125 13.2328 1.1591 12.9727 1.22309 12.6949C0.476719 12.1078 0 11.1727 0 10.125C0 9.24258 0.339117 8.4375 0.892969 7.8082C0.860625 7.66758 0.84375 7.4918 0.84375 7.3125C0.84375 6.27187 1.41047 5.36133 2.25141 4.87617C2.25035 4.84453 2.25 4.81289 2.25 4.78125C2.25 3.6 2.97879 2.58855 4.01133 2.1723C4.29961 0.92707 5.41758 0 6.75 0C7.67109 0 8.48672 0.441914 9 1.12465C9.51328 0.441914 10.3289 0 11.25 0C12.5824 0 13.7004 0.92707 13.9887 2.1723C15.0223 2.58855 15.75 3.6 15.75 4.78125C15.75 4.81289 15.7184 4.84453 15.7184 4.87617C16.5902 5.36133 17.1562 6.27187 17.1562 7.3125C17.1562 7.4918 17.1387 7.66758 17.107 7.8082C17.6625 8.4375 18 9.24258 18 10.125C18 11.1727 17.5219 12.1078 16.7766 12.6949C16.8398 12.9727 16.875 13.2328 16.875 13.5C16.875 15.2086 15.4898 16.5938 13.7812 16.5938C13.7496 16.5938 13.718 16.5621 13.6863 16.5621C13.2012 17.434 12.2906 18 11.25 18C10.3289 18 9.51328 17.557 9 16.875C8.48672 17.557 7.67109 18 6.75 18C5.70937 18 4.79883 17.434 4.31367 16.5621ZM6.75 1.125C5.87109 1.125 5.15039 1.79578 5.06953 2.65219L5.03437 3.0477L4.64766 3.14508C3.91641 3.32965 3.375 3.99375 3.375 4.78125C3.375 4.89023 3.38555 4.99922 3.40559 5.10469L3.49488 5.56523L3.05402 5.73398C2.4184 5.97656 1.93711 6.59531 1.93711 7.3125C1.93711 7.49531 1.99828 7.67461 2.05207 7.8082L2.16738 8.15977L1.8893 8.43398C1.41961 8.84883 1.09336 9.45352 1.09336 10.125C1.09336 10.9301 1.54723 11.6367 2.18531 12.034L2.59277 12.2906L2.40539 12.7336C2.30555 12.9656 2.21836 13.2258 2.21836 13.5C2.21836 14.5863 3.13137 15.4688 4.18711 15.4688C4.33477 15.4688 4.44727 15.4582 4.55273 15.4406L5.00977 15.3316L5.175 15.7922C5.41758 16.4285 6.03281 16.875 6.71836 16.875C7.68164 16.875 8.40586 16.1191 8.40586 15.1875V10.6875H6.71836C6.49336 10.6875 6.27539 10.8598 6.20859 11.0953C6.69375 11.3168 6.99961 11.8055 6.99961 12.375C6.99961 13.152 6.40195 13.7812 5.59336 13.7812C4.84805 13.7812 4.18711 13.152 4.18711 12.375C4.18711 11.7949 4.53867 11.2957 5.06953 11.0813C5.15391 10.1988 5.87461 9.5625 6.71836 9.5625H8.40586V5.625H7.47773C7.25977 6.1207 6.76406 6.46875 6.15586 6.46875C5.41055 6.46875 4.74961 5.83945 4.74961 5.0625C4.74961 4.28555 5.41055 3.65625 6.15586 3.65625C6.76406 3.65625 7.25977 4.0043 7.47773 4.5H8.40586V2.8125C8.40586 1.88051 7.68164 1.125 6.71836 1.125H6.75ZM9.5625 12.375H11.6473C11.8652 11.8793 12.3609 11.5312 12.9375 11.5312C13.7145 11.5312 14.3438 12.1605 14.3438 12.9375C14.3438 13.7145 13.7145 14.3438 12.9375 14.3438C12.3609 14.3438 11.8652 13.9957 11.6473 13.5H9.5625V15.1875C9.5625 16.1191 10.3184 16.875 11.25 16.875C11.9672 16.875 12.5824 16.425 12.825 15.7922L12.9902 15.3316L13.4473 15.4406C13.5527 15.4582 13.6652 15.4688 13.7812 15.4688C14.8676 15.4688 15.75 14.5863 15.75 13.5C15.75 13.2258 15.6938 12.9656 15.5953 12.7336L15.4055 12.2906L15.8133 12.034C16.4215 11.6367 16.875 10.9301 16.875 10.0934C16.875 9.45352 16.5797 8.84883 16.1121 8.43398L15.8309 8.15977L15.9469 7.8082C16.0031 7.67461 16.0312 7.49531 16.0312 7.28086C16.0312 6.59531 15.5813 5.97656 14.9449 5.73398L14.5055 5.56523L14.5934 5.10469C14.6145 4.99922 14.625 4.89023 14.625 4.74961C14.625 3.99375 14.0836 3.32965 13.3523 3.14508L12.9656 3.0477L12.9305 2.65219C12.8496 1.79578 12.0973 1.09336 11.25 1.09336C10.3184 1.09336 9.5625 1.88051 9.5625 2.78086V4.46836H11.25C12.1816 4.46836 12.9375 5.25586 12.9375 6.15586V6.58477C13.4332 6.80273 13.7812 7.29844 13.7812 7.84336C13.7812 8.65195 13.152 9.24961 12.375 9.24961C11.598 9.24961 10.9688 8.65195 10.9688 7.84336C10.9688 7.29844 11.3168 6.80273 11.8125 6.58477V6.15586C11.8125 5.87813 11.5594 5.59336 11.25 5.59336H9.5625V12.375ZM6.1875 5.625C6.49688 5.625 6.75 5.37188 6.75 5.0625C6.75 4.75312 6.49688 4.5 6.1875 4.5C5.87812 4.5 5.625 4.75312 5.625 5.0625C5.625 5.37188 5.87812 5.625 6.1875 5.625ZM5.625 12.9375C5.93438 12.9375 6.1875 12.6844 6.1875 12.375C6.1875 12.0656 5.93438 11.8125 5.625 11.8125C5.31562 11.8125 5.0625 12.0656 5.0625 12.375C5.0625 12.6844 5.31562 12.9375 5.625 12.9375ZM12.9375 7.875C12.9375 7.56562 12.6844 7.3125 12.375 7.3125C12.0656 7.3125 11.8125 7.56562 11.8125 7.875C11.8125 8.18438 12.0656 8.4375 12.375 8.4375C12.6844 8.4375 12.9375 8.18438 12.9375 7.875ZM12.9375 13.5C13.2469 13.5 13.5 13.2469 13.5 12.9375C13.5 12.6281 13.2469 12.375 12.9375 12.375C12.6281 12.375 12.375 12.6281 12.375 12.9375C12.375 13.2469 12.6281 13.5 12.9375 13.5Z" fill="var(--fill-0, #484848)"/>
</svg>
