<svg preserveAspectRatio="none" width="100%" height="100%" overflow="visible" style="display: block;" viewBox="0 0 8 8" fill="none" xmlns="http://www.w3.org/2000/svg">
<path id="Vector" d="M8 0.6V6.6C8 6.93125 7.73125 7.2 7.4 7.2C7.06875 7.2 6.8 6.93125 6.8 6.6V2.0475L1.02503 7.8225C0.907028 7.9425 0.753528 8 0.600029 8C0.446529 8 0.29303 7.9414 0.175781 7.82422C-0.0585935 7.58985 -0.0585935 7.21022 0.175781 6.97572L5.95251 1.2H1.40003C1.06878 1.2 0.800028 0.9325 0.800028 0.6C0.800028 0.2675 1.06878 0 1.40003 0H7.4C7.7325 0 8 0.27 8 0.6Z" fill="var(--fill-0, #BFBFBF)"/>
</svg>
