<svg preserveAspectRatio="none" width="100%" height="100%" overflow="visible" style="display: block;" viewBox="0 0 18 16" fill="none" xmlns="http://www.w3.org/2000/svg">
<path id="Vector" d="M10.999 0.554688C11.222 0.453883 11.484 0.494718 11.667 0.660156H11.668L17.293 5.72266L17.2939 5.72363C17.4263 5.84246 17.5 6.00953 17.5 6.18848C17.4999 6.36322 17.4256 6.53153 17.293 6.65332L11.6689 11.7148C11.4857 11.8784 11.2238 11.9203 10.9941 11.8193C10.7701 11.7208 10.6251 11.4978 10.625 11.251V8.50098H6.75C4.61058 8.50098 2.875 10.2366 2.875 12.376C2.87508 13.6053 3.39994 14.3456 3.81152 14.7354L3.81543 14.7393C3.95265 14.8665 4 14.9863 4 15.0586C3.99974 15.1635 3.91279 15.2509 3.80762 15.251C3.76642 15.251 3.75858 15.2436 3.7666 15.248L3.76172 15.2451L3.44824 15.0576C2.53379 14.47 0.500112 12.8032 0.5 9.56348C0.5 6.42243 3.04645 3.87598 6.1875 3.87598H10.625V1.12598C10.625 0.881116 10.7722 0.655922 10.9961 0.556641L10.999 0.554688Z" stroke="var(--stroke-0, #484848)"/>
</svg>
