<svg preserveAspectRatio="none" width="100%" height="100%" overflow="visible" style="display: block;" viewBox="0 0 18 18" fill="none" xmlns="http://www.w3.org/2000/svg">
<path id="Vector" d="M15.4286 0C16.8469 0 18 1.15112 18 2.57143V15.4286C18 16.8469 16.8469 18 15.4286 18H2.57143C1.15112 18 0 16.8469 0 15.4286V2.57143C0 1.15112 1.15112 0 2.57143 0H15.4286ZM15.4286 1.28571H9.64286V8.35714H16.7143V2.57143C16.7143 1.86147 16.1397 1.28571 15.4286 1.28571ZM16.7143 9.64286H9.64286V16.7143H15.4286C16.1397 16.7143 16.7143 16.1397 16.7143 15.4286V9.64286ZM8.35714 8.35714V1.28571H2.57143C1.86147 1.28571 1.28571 1.86147 1.28571 2.57143V8.35714H8.35714ZM1.28571 9.64286V15.4286C1.28571 16.1397 1.86147 16.7143 2.57143 16.7143H8.35714V9.64286H1.28571Z" fill="var(--fill-0, #484848)"/>
</svg>
