<svg preserveAspectRatio="none" width="100%" height="100%" overflow="visible" style="display: block;" viewBox="0 0 12 12" fill="none" xmlns="http://www.w3.org/2000/svg">
<path id="Vector" d="M12 2.57143C12 3.99107 10.8482 5.14286 9.42857 5.14286C8.65446 5.14286 7.96071 4.8 7.48929 4.25893L5.08661 5.46161C5.12411 5.63571 5.11875 5.81518 5.11875 5.97589C5.11875 6.18482 5.12411 6.36429 5.08661 6.53839L7.48929 7.71696C7.96071 7.2 8.65446 6.83304 9.42857 6.83304C10.8482 6.83304 12 7.98482 12 9.42857C12 10.8482 10.8482 12 9.42857 12C7.98482 12 6.85714 10.8482 6.85714 9.42857C6.85714 9.24375 6.87589 9.06429 6.91339 8.89018L4.51071 7.6875C4.03929 8.22857 3.34554 8.57143 2.57143 8.57143C1.15125 8.57143 0 7.41964 0 5.97589C0 4.55625 1.15125 3.40446 2.57143 3.40446C3.34554 3.40446 4.03929 3.77143 4.51071 4.28839L6.91339 3.10982C6.87589 2.93571 6.85714 2.75625 6.85714 2.57143C6.85714 1.15125 7.98482 0 9.42857 0C10.8482 0 12 1.15125 12 2.57143ZM2.54732 7.28571C3.28125 7.28571 3.83304 6.70982 3.83304 6C3.83304 5.29018 3.28125 4.71429 2.54732 4.71429C1.86134 4.71429 1.26161 5.29018 1.26161 6C1.26161 6.70982 1.86134 7.28571 2.54732 7.28571ZM9.42857 1.28571C8.71875 1.28571 8.14286 1.86161 8.14286 2.57143C8.14286 3.28125 8.71875 3.85714 9.42857 3.85714C10.1384 3.85714 10.7143 3.28125 10.7143 2.57143C10.7143 1.86161 10.1384 1.28571 9.42857 1.28571ZM9.42857 10.7143C10.1384 10.7143 10.7143 10.1384 10.7143 9.42857C10.7143 8.71875 10.1384 8.14286 9.42857 8.14286C8.71875 8.14286 8.14286 8.71875 8.14286 9.42857C8.14286 10.1384 8.71875 10.7143 9.42857 10.7143Z" fill="var(--fill-0, #747474)"/>
</svg>
