<svg preserveAspectRatio="none" width="100%" height="100%" overflow="visible" style="display: block;" viewBox="0 0 14 8" fill="none" xmlns="http://www.w3.org/2000/svg">
<path id="angle-down-solid" d="M6.05363 7.66522C6.26821 7.87958 6.55912 8 6.86243 8C7.16574 8 7.45664 7.87958 7.67123 7.66522L13.3838 1.95261C13.5983 1.7381 13.7189 1.44717 13.7189 1.14381C13.7189 0.840453 13.5983 0.549521 13.3838 0.335014C13.1693 0.120507 12.8784 0 12.575 0C12.2717 0 11.9807 0.120507 11.7662 0.335014L6.86028 5.24096L1.95262 0.339305C1.73811 0.124797 1.44718 0.00427727 1.14382 0.00427728C0.840458 0.00427728 0.549523 0.124797 0.335016 0.339305C0.120509 0.553812 5.97993e-09 0.844743 0 1.1481C-5.97994e-09 1.45146 0.120509 1.74239 0.335016 1.9569L6.04763 7.66951L6.05363 7.66522Z" fill="var(--fill-0, #484848)"/>
</svg>
