<svg preserveAspectRatio="none" width="100%" height="100%" overflow="visible" style="display: block;" viewBox="0 0 12 12" fill="none" xmlns="http://www.w3.org/2000/svg">
<path id="Vector" d="M10.2857 7.875H5.14286C4.90714 7.875 4.71429 7.70625 4.71429 7.5V1.5C4.71429 1.29375 4.90714 1.125 5.14286 1.125H8.89554L10.7143 2.71641V7.5C10.7143 7.70625 10.5214 7.875 10.2857 7.875ZM5.14286 9H10.2857C11.2313 9 12 8.32734 12 7.5V2.71641C12 2.41875 11.8634 2.13281 11.6223 1.92188L9.80625 0.330469C9.56518 0.119531 9.23839 0 8.89821 0H5.14286C4.19732 0 3.42857 0.672656 3.42857 1.5V7.5C3.42857 8.32734 4.19732 9 5.14286 9ZM1.71429 3C0.76875 3 0 3.67266 0 4.5V10.5C0 11.3273 0.76875 12 1.71429 12H6.85714C7.80268 12 8.57143 11.3273 8.57143 10.5V9.75H7.28571V10.5C7.28571 10.7063 7.09286 10.875 6.85714 10.875H1.71429C1.47857 10.875 1.28571 10.7063 1.28571 10.5V4.5C1.28571 4.29375 1.47857 4.125 1.71429 4.125H2.57143V3H1.71429Z" fill="var(--fill-0, #747474)"/>
</svg>
