<svg preserveAspectRatio="none" width="100%" height="100%" overflow="visible" style="display: block;" viewBox="0 0 50 50" fill="none" xmlns="http://www.w3.org/2000/svg">
<path id="Vector" d="M42.0463 0C45.9115 0 49.0541 3.13705 49.0541 7.00772V42.0463C49.0541 45.9115 45.9115 49.0541 42.0463 49.0541H7.00772C3.13705 49.0541 0 45.9115 0 42.0463V7.00772C0 3.13705 3.13705 0 7.00772 0H42.0463ZM42.0463 3.50386H26.279V22.7751H45.5502V7.00772C45.5502 5.07293 43.9844 3.50386 42.0463 3.50386ZM45.5502 26.279H26.279V45.5502H42.0463C43.9844 45.5502 45.5502 43.9844 45.5502 42.0463V26.279ZM22.7751 22.7751V3.50386H7.00772C5.07293 3.50386 3.50386 5.07293 3.50386 7.00772V22.7751H22.7751ZM3.50386 26.279V42.0463C3.50386 43.9844 5.07293 45.5502 7.00772 45.5502H22.7751V26.279H3.50386Z" fill="var(--fill-0, #FFC627)"/>
</svg>
