<svg preserveAspectRatio="none" width="100%" height="100%" overflow="visible" style="display: block;" viewBox="0 0 14 12" fill="none" xmlns="http://www.w3.org/2000/svg">
<path id="Vector" d="M3.5 11.1188V5.11875C3.5 4.64545 3.10816 4.28571 2.625 4.28571H0.875C0.391836 4.28571 0 4.66955 0 5.11875V11.0946C0 11.5679 0.391836 11.9277 0.875 11.9277H2.625C3.10898 11.9759 3.5 11.6143 3.5 11.1188ZM14 5.14554C14 4.43571 13.4127 3.86036 12.6875 3.86036H8.68164C9.30426 2.84491 9.62555 1.69393 9.62555 1.28839C9.625 0.656786 9.11914 0 8.27148 0C6.54527 0 7.5507 2.03973 5.31289 3.79286L4.86719 4.14107C4.54453 4.39554 4.38047 4.76786 4.37773 5.14286L4.375 9.42857C4.375 9.83304 4.5695 10.2142 4.9 10.4569L5.83352 11.1423C6.58984 11.7 7.51133 12 8.45742 12H10.0625C10.7877 12 11.375 11.4249 11.375 10.7148C11.375 10.6175 11.3619 10.5235 11.3409 10.4322C11.8672 10.2643 12.25 9.7875 12.25 9.21429C12.25 8.96925 12.1763 8.74259 12.0548 8.54786C12.6629 8.4375 13.125 7.91518 13.125 7.28839C13.125 6.95357 12.9912 6.65143 12.7772 6.42268C13.4586 6.37768 14 5.82589 14 5.14554Z" fill="var(--fill-0, #747474)"/>
</svg>
