<svg preserveAspectRatio="none" width="100%" height="100%" overflow="visible" style="display: block;" viewBox="0 0 14 12" fill="none" xmlns="http://www.w3.org/2000/svg">
<path id="Vector" d="M3.5 6.85682V0.85725C3.5 0.383917 3.10816 0.0241622 2.625 0.0241622H0.875C0.391836 0.0241622 0 0.408025 0 0.85725V6.83352C0 7.30685 0.391836 7.66661 0.875 7.66661H2.625C3.10898 7.71402 3.5 7.33096 3.5 6.85682ZM13.166 5.27904C13.1998 5.14264 13.2173 5.0026 13.2173 4.86009C13.2173 4.25202 12.9045 3.70475 12.4167 3.37928C12.4282 3.29852 12.4342 3.21652 12.4342 3.13493C12.4342 2.53703 12.1318 1.99379 11.6459 1.66618C11.5792 0.736385 10.7853 0 9.81929 0H8.38293C7.40019 0 6.42648 0.317966 5.64035 0.894967L4.6375 1.63141C4.46564 1.75757 4.37511 1.94884 4.37511 2.14385C4.37511 2.48566 4.65648 2.78782 5.03218 2.78782C5.16925 2.78782 5.30753 2.74589 5.42538 2.65894L6.4278 1.92202C6.9878 1.5111 7.68234 1.28421 8.38288 1.28421H9.81925C10.105 1.28421 10.338 1.51183 10.338 1.79184C10.338 1.88559 10.3076 1.92416 10.3076 2.04514C10.3076 2.76759 11.1216 2.5249 11.1216 3.13378C11.1216 3.38167 10.9469 3.42737 10.9469 3.7298C10.9469 4.10402 11.2435 4.31778 11.4822 4.36171C11.7271 4.40647 11.9047 4.61568 11.9047 4.85888C11.9047 5.20819 11.5933 5.21703 11.5933 5.63331C11.5933 5.96922 11.8585 6.25156 12.2047 6.2746C12.4742 6.27018 12.6875 6.51394 12.6875 6.75235C12.6875 7.03174 12.4546 7.25944 12.1688 7.25944H8.40547C8.06531 7.25944 7.74922 7.52785 7.74922 7.87822C7.74922 7.98639 7.77711 8.09461 7.83305 8.19217C8.32344 9.09893 8.53125 9.9588 8.53125 10.157C8.53125 10.3725 8.36763 10.7139 7.92805 10.7139C7.58543 10.7139 7.53785 10.6897 7.24609 9.96202C6.56934 8.27682 5.55789 7.28596 5.0318 7.28596C4.65445 7.28596 4.375 7.58785 4.375 7.92858C4.375 8.11719 4.4593 8.30414 4.62153 8.43112C6.51055 9.91058 5.78047 12 7.92695 12C9.12734 12 9.84375 11.0624 9.84375 10.157C9.84375 9.81683 9.69806 9.21384 9.43824 8.56773H12.1688C13.1551 8.56854 14 7.76491 14 6.75235C14 6.15499 13.6691 5.59781 13.166 5.27904Z" fill="var(--fill-0, #747474)"/>
</svg>
