<svg preserveAspectRatio="none" width="100%" height="100%" overflow="visible" style="display: block;" viewBox="0 0 16 16" fill="none" xmlns="http://www.w3.org/2000/svg">
<path id="Vector" d="M4.85714 0H0.857143C0.383929 0 0 0.383929 0 0.857143V4.85714C0 5.33214 0.383929 5.71429 0.857143 5.71429C1.33071 5.71429 1.71429 5.33214 1.71429 4.85714V1.71429H4.85714C5.33214 1.71429 5.71429 1.33036 5.71429 0.857143C5.71429 0.383929 5.33214 0 4.85714 0ZM15.1429 0H11.1429C10.6679 0 10.2857 0.383929 10.2857 0.857143C10.2857 1.33071 10.6696 1.71429 11.1429 1.71429H14.2857V4.85714C14.2857 5.33214 14.6679 5.71429 15.1429 5.71429C15.6179 5.71429 16 5.33214 16 4.85714V0.857143C16 0.383929 15.6179 0 15.1429 0ZM4.85714 14.2857H1.71429V11.1429C1.71429 10.6679 1.33036 10.2857 0.857143 10.2857C0.383929 10.2857 0 10.6679 0 11.1429V15.1429C0 15.6179 0.383929 16 0.857143 16H4.85714C5.33214 16 5.71429 15.6179 5.71429 15.1429C5.71429 14.6679 5.33214 14.2857 4.85714 14.2857ZM15.1429 10.2857C14.6693 10.2857 14.2857 10.6696 14.2857 11.1429V14.2857H11.1429C10.6693 14.2857 10.2857 14.6696 10.2857 15.1429C10.2857 15.6161 10.6679 16 11.1429 16H15.1429C15.6161 16 16 15.6161 16 15.1429V11.1429C16 10.6679 15.6179 10.2857 15.1429 10.2857Z" fill="var(--fill-0, #484848)"/>
</svg>
