<svg preserveAspectRatio="none" width="100%" height="100%" overflow="visible" style="display: block;" viewBox="0 0 16 14" fill="none" xmlns="http://www.w3.org/2000/svg">
<path id="Path 284" d="M15.9996 7.00003C16.0034 7.15147 15.9775 7.30217 15.9234 7.44327C15.8692 7.58437 15.788 7.71305 15.6844 7.82174C15.5808 7.93044 15.457 8.01697 15.3201 8.07626C15.1833 8.13555 15.0362 8.16641 14.8875 8.16703H3.91159L7.68377 12.009C7.79019 12.1173 7.87463 12.2459 7.93223 12.3875C7.98984 12.529 8.01949 12.6808 8.01949 12.834C8.01949 12.9873 7.98984 13.139 7.93223 13.2806C7.87463 13.4221 7.79019 13.5507 7.68377 13.659C7.46796 13.878 7.17561 14.0007 6.87102 14C6.72057 14.0003 6.57155 13.9702 6.43256 13.9115C6.29357 13.8528 6.16737 13.7667 6.06123 13.658L0.335724 7.82503C0.229295 7.71674 0.144863 7.58813 0.0872571 7.44657C0.0296508 7.30501 0 7.15327 0 7.00003C0 6.84678 0.0296508 6.69504 0.0872571 6.55348C0.144863 6.41192 0.229295 6.28332 0.335724 6.17503L6.06123 0.342028C6.16752 0.233601 6.29376 0.147584 6.43271 0.0888958C6.57166 0.0302079 6.72061 0 6.87102 0C7.02144 0 7.17039 0.0302079 7.30934 0.0888958C7.44829 0.147584 7.57452 0.233601 7.68082 0.342028C7.78725 0.45032 7.87168 0.578923 7.92929 0.720483C7.98689 0.862043 8.01654 1.01378 8.01654 1.16703C8.01654 1.32027 7.98689 1.47201 7.92929 1.61357C7.87168 1.75513 7.78725 1.88374 7.68082 1.99203L3.91159 5.83403H14.8875C15.0361 5.83465 15.1831 5.86547 15.3199 5.9247C15.4567 5.98393 15.5805 6.07037 15.6841 6.17896C15.7876 6.28755 15.8689 6.4161 15.9231 6.55709C15.9773 6.69808 16.0033 6.84866 15.9996 7.00003Z" fill="var(--fill-0, #8C1D40)"/>
</svg>
