<svg preserveAspectRatio="none" width="100%" height="100%" overflow="visible" style="display: block;" viewBox="0 0 12 12" fill="none" xmlns="http://www.w3.org/2000/svg">
<path id="rotate-left" d="M0.382574 0.496393C0.496091 0.448226 0.62082 0.435785 0.74114 0.460628C0.861459 0.485471 0.972019 0.546494 1.05897 0.636053L2.12167 1.73559C2.91979 0.918253 3.93011 0.358265 5.02992 0.123625C6.12974 -0.111015 7.27174 -0.0102111 8.31725 0.413795C9.36276 0.837802 10.2668 1.56677 10.9196 2.51217C11.5723 3.45758 11.9458 4.57875 11.9945 5.73953C12.0433 6.90032 11.7652 8.05078 11.1942 9.0512C10.6231 10.0516 9.78361 10.859 8.77759 11.3752C7.77156 11.8915 6.64232 12.0944 5.52698 11.9593C4.41163 11.8243 3.35818 11.3571 2.49455 10.6144C2.43197 10.5604 2.38028 10.4942 2.34244 10.4195C2.3046 10.3449 2.28135 10.2632 2.27401 10.1792C2.26667 10.0952 2.27538 10.0106 2.29966 9.93011C2.32394 9.84963 2.3633 9.77487 2.4155 9.71012C2.4677 9.64537 2.53171 9.5919 2.60388 9.55274C2.67606 9.51359 2.75498 9.48953 2.83614 9.48194C2.9173 9.47434 2.99911 9.48336 3.0769 9.50848C3.15469 9.5336 3.22694 9.57432 3.28952 9.62833C3.96588 10.2161 4.79274 10.5877 5.66952 10.6981C6.5463 10.8085 7.43519 10.6529 8.22804 10.2501C9.02089 9.8474 9.68352 9.21493 10.1353 8.42966C10.5871 7.6444 10.8086 6.74021 10.7728 5.8271C10.737 4.91398 10.4455 4.03132 9.93369 3.28649C9.42193 2.54166 8.71197 1.96678 7.8902 1.6318C7.06843 1.29682 6.17028 1.21617 5.30503 1.39967C4.43977 1.58317 3.64471 2.0229 3.01658 2.66537L4.36415 4.05966C4.45115 4.14925 4.51048 4.26355 4.53461 4.38807C4.55874 4.51259 4.54659 4.64173 4.4997 4.75909C4.45281 4.87646 4.37329 4.97678 4.27122 5.04732C4.16916 5.11787 4.04914 5.15546 3.92639 5.15534H0.620469C0.538898 5.15544 0.458109 5.13888 0.382737 5.10661C0.307366 5.07433 0.238893 5.02698 0.181248 4.96727C0.123603 4.90755 0.0779203 4.83665 0.0468176 4.75863C0.015715 4.6806 -0.000194584 4.59699 1.79606e-06 4.51259V1.08976C-8.43369e-05 0.962796 0.0362151 0.838659 0.104312 0.733042C0.172408 0.627425 0.269244 0.545071 0.382574 0.496393Z" fill="var(--fill-0, #484848)"/>
</svg>
