<svg preserveAspectRatio="none" width="100%" height="100%" overflow="visible" style="display: block;" viewBox="0 0 10 6" fill="none" xmlns="http://www.w3.org/2000/svg">
<path id="angle-down-solid" d="M4.41263 5.38839C4.56905 5.53908 4.7811 5.62373 5.00219 5.62373C5.22328 5.62373 5.43532 5.53908 5.59174 5.38839L9.7558 1.37262C9.91216 1.22183 10 1.01731 10 0.804061C10 0.59081 9.91216 0.386295 9.7558 0.235504C9.59944 0.0847122 9.38737 0 9.16624 0C8.94512 0 8.73305 0.0847122 8.57669 0.235504L5.00062 3.68422L1.42331 0.238519C1.26695 0.0877282 1.05488 0.00300678 0.833755 0.00300678C0.61263 0.00300678 0.40056 0.0877282 0.244201 0.238519C0.0878415 0.389311 4.35891e-09 0.593826 0 0.807077C-4.35892e-09 1.02033 0.0878415 1.22484 0.244201 1.37563L4.40826 5.3914L4.41263 5.38839Z" fill="var(--fill-0, #747474)"/>
</svg>
