<svg preserveAspectRatio="none" width="100%" height="100%" overflow="visible" style="display: block;" viewBox="0 0 18 18" fill="none" xmlns="http://www.w3.org/2000/svg">
<path id="Vector" d="M18 12.9375V1.6875C18 0.755508 17.1362 0 16.0714 0H3.21429C1.4392 0 0 1.2593 0 2.8125V15.75C0 16.9928 1.15112 18 2.57143 18H17.3571C17.7125 18 18 17.7484 18 17.4375C18 17.1266 17.7107 16.875 17.3571 16.875H16.7143V14.5213C17.4616 14.2875 18 13.6687 18 12.9375ZM1.28571 2.8125C1.28571 1.88051 2.14915 1.125 3.21429 1.125H3.85714V13.5H2.57143C2.10094 13.5 1.6654 13.6191 1.28571 13.8129V2.8125ZM15.4286 16.875H2.57143C1.86268 16.875 1.28571 16.3702 1.28571 15.75C1.28571 15.1298 1.86268 14.625 2.57143 14.625H15.4286V16.875ZM16.0714 13.5H5.14286V1.125H16.0714C16.425 1.125 16.7143 1.37707 16.7143 1.6875V12.9375C16.7143 13.2469 16.425 13.5 16.0714 13.5ZM14.1429 4.5H7.71429C7.36071 4.5 7.07143 4.75312 7.07143 5.0625C7.07143 5.37188 7.36071 5.625 7.71429 5.625H14.1429C14.4982 5.625 14.7857 5.37342 14.7857 5.0625C14.7857 4.75158 14.4964 4.5 14.1429 4.5ZM14.1429 7.875H7.71429C7.36071 7.875 7.07143 8.12812 7.07143 8.4375C7.07143 8.74688 7.36071 9 7.71429 9H14.1429C14.4982 9 14.7857 8.74842 14.7857 8.4375C14.7857 8.12658 14.4964 7.875 14.1429 7.875Z" fill="var(--fill-0, #484848)"/>
</svg>
