<svg preserveAspectRatio="none" width="100%" height="100%" overflow="visible" style="display: block;" viewBox="0 0 20 18" fill="none" xmlns="http://www.w3.org/2000/svg">
<path id="Vector" d="M19.7769 15.0391L11.4512 0.820312C11.1311 0.273438 10.569 0 10.007 0C9.44488 0 8.88281 0.273438 8.52761 0.820312L0.205804 15.0391C-0.398815 16.1289 0.399056 17.5 1.68281 17.5H18.3342C19.6129 17.5 20.4131 16.1328 19.7769 15.0391ZM2.06689 15.625L9.97182 2.0625L17.9462 15.625H2.06689ZM10.007 11.918C9.32934 11.918 8.77976 12.468 8.77976 13.1461C8.77976 13.8242 9.33051 14.3742 10.0085 14.3742C10.6865 14.3742 11.2341 13.8242 11.2341 13.1461C11.2326 12.4688 10.6861 11.918 10.007 11.918ZM9.07017 5.9375V9.6875C9.07017 10.207 9.49172 10.625 10.007 10.625C10.5222 10.625 10.9437 10.2051 10.9437 9.6875V5.9375C10.9437 5.42188 10.5261 5 10.007 5C9.48782 5 9.07017 5.42188 9.07017 5.9375Z" fill="var(--fill-0, #8C1D40)"/>
</svg>
