<svg preserveAspectRatio="none" width="100%" height="100%" overflow="visible" style="display: block;" viewBox="0 0 10 6" fill="none" xmlns="http://www.w3.org/2000/svg">
<path id="angle-down-solid" d="M4.41263 5.74892C4.56905 5.90969 4.7811 6 5.00219 6C5.22328 6 5.43532 5.90969 5.59174 5.74892L9.7558 1.46446C9.91216 1.30358 10 1.08538 10 0.857859C10 0.63034 9.91216 0.412141 9.7558 0.251261C9.59944 0.0903802 9.38737 0 9.16624 0C8.94512 0 8.73305 0.0903802 8.57669 0.251261L5.00062 3.93072L1.42331 0.254478C1.26695 0.0935979 1.05488 0.00320795 0.833755 0.00320796C0.61263 0.00320796 0.40056 0.0935979 0.244201 0.254478C0.0878415 0.415359 4.35891e-09 0.633557 0 0.861077C-4.35892e-09 1.0886 0.0878415 1.30679 0.244201 1.46768L4.40826 5.75213L4.41263 5.74892Z" fill="var(--fill-0, #747474)"/>
</svg>
