<svg preserveAspectRatio="none" width="100%" height="100%" overflow="visible" style="display: block;" viewBox="0 0 14 14" fill="none" xmlns="http://www.w3.org/2000/svg">
<path id="circle-question-regular" d="M12.688 7C12.688 5.87502 12.3544 4.77531 11.7294 3.83992C11.1044 2.90453 10.216 2.17549 9.1767 1.74498C8.13736 1.31447 6.99369 1.20182 5.89033 1.4213C4.78696 1.64077 3.77346 2.1825 2.97798 2.97798C2.1825 3.77346 1.64077 4.78697 1.42129 5.89033C1.20182 6.99369 1.31446 8.13736 1.74497 9.17671C2.17548 10.2161 2.90453 11.1044 3.83992 11.7294C4.7753 12.3544 5.87502 12.688 7 12.688C8.50855 12.688 9.95532 12.0887 11.022 11.022C12.0887 9.95532 12.688 8.50855 12.688 7ZM0 7C0 5.61553 0.410543 4.26216 1.17971 3.11101C1.94888 1.95987 3.04213 1.06266 4.32122 0.532846C5.6003 0.00303304 7.00777 -0.13559 8.36563 0.134506C9.7235 0.404603 10.9708 1.07129 11.9497 2.05026C12.9287 3.02922 13.5954 4.2765 13.8655 5.63437C14.1356 6.99224 13.997 8.3997 13.4672 9.67879C12.9373 10.9579 12.0401 12.0511 10.889 12.8203C9.73785 13.5895 8.38447 14 7 14C5.14348 14 3.36301 13.2625 2.05025 11.9497C0.737498 10.637 0 8.85652 0 7ZM4.643 4.52C4.74905 4.22179 4.94476 3.96368 5.20328 3.78106C5.46181 3.59845 5.77049 3.50028 6.087 3.5H7.681C8.06123 3.50047 8.43067 3.6264 8.73202 3.85827C9.03337 4.09013 9.24978 4.41496 9.34767 4.78237C9.44556 5.14978 9.41947 5.53923 9.27343 5.89029C9.1274 6.24136 8.86959 6.53442 8.54 6.724L7.657 7.23C7.65554 7.40399 7.58503 7.57026 7.46097 7.69225C7.33692 7.81425 7.16948 7.88196 6.9955 7.8805C6.82152 7.87904 6.65524 7.80853 6.53325 7.68448C6.41126 7.56042 6.34354 7.39299 6.345 7.219V6.85C6.34504 6.73439 6.37569 6.62084 6.43383 6.5209C6.49196 6.42096 6.57552 6.33819 6.676 6.281L7.887 5.586C7.96579 5.54068 8.02743 5.47064 8.06236 5.38672C8.09729 5.30281 8.10357 5.20972 8.08021 5.12188C8.05685 5.03404 8.00517 4.95635 7.93318 4.90087C7.86118 4.84539 7.77289 4.81521 7.682 4.815H6.087C6.04195 4.81464 5.99792 4.82845 5.96113 4.85447C5.92435 4.88049 5.89667 4.9174 5.882 4.96L5.871 4.993C5.80824 5.15046 5.68697 5.27751 5.5326 5.34752C5.37824 5.41754 5.20276 5.42509 5.04296 5.36859C4.88315 5.31208 4.75142 5.19592 4.67536 5.04444C4.59931 4.89295 4.58485 4.71792 4.635 4.556L4.646 4.523L4.643 4.52ZM6.125 9.625C6.125 9.45194 6.17632 9.28277 6.27246 9.13888C6.36861 8.99499 6.50527 8.88284 6.66515 8.81661C6.82504 8.75038 7.00097 8.73305 7.1707 8.76682C7.34044 8.80058 7.49635 8.88391 7.61872 9.00628C7.74109 9.12866 7.82443 9.28457 7.85819 9.4543C7.89195 9.62403 7.87462 9.79997 7.80839 9.95985C7.74217 10.1197 7.63002 10.2564 7.48612 10.3525C7.34223 10.4487 7.17306 10.5 7 10.5C6.76794 10.5 6.54538 10.4078 6.38128 10.2437C6.21719 10.0796 6.125 9.85707 6.125 9.625Z" fill="var(--fill-0, #747474)"/>
</svg>
