<svg preserveAspectRatio="none" width="100%" height="100%" overflow="visible" style="display: block;" viewBox="0 0 12 12" fill="none" xmlns="http://www.w3.org/2000/svg">
<path id="Vector" d="M11.1633 0C11.0141 0 10.8584 0.0316406 10.71 0.0992109C9.63914 0.588117 8.84531 0.754055 8.18344 0.754055C6.77813 0.754055 5.96133 0.00733594 4.34203 0.00710156C3.53039 0.00710156 2.51695 0.194672 1.12641 0.758273V0.5625C1.125 0.251953 0.873047 0 0.5625 0C0.251953 0 0 0.251953 0 0.5625V11.4375C0 11.7492 0.251953 12 0.5625 12C0.873047 12 1.125 11.748 1.125 11.4375V9C2.38102 8.44078 3.37547 8.25445 4.2375 8.25445C5.9632 8.25445 7.16484 8.9993 8.89219 8.9993C9.64008 8.9993 10.4864 8.85935 11.4961 8.45813C11.8148 8.34141 12 8.07188 12 7.78359V0.720234C12 0.260156 11.6086 0 11.1633 0ZM10.875 7.49531C10.1646 7.74891 9.51375 7.87266 8.89219 7.87266C8.17031 7.87266 7.52555 7.70859 6.84281 7.53492C6.09258 7.34412 5.24227 7.12781 4.23891 7.12781C3.24633 7.12781 2.22352 7.34086 1.12641 7.77773V1.97203L1.54898 1.80091C2.65969 1.35091 3.57352 1.13201 4.34273 1.13201C5.00461 1.1321 5.49398 1.2893 6.06094 1.47138C6.65578 1.66235 7.32961 1.87896 8.18391 1.87896C9.0143 1.87896 9.87703 1.67984 10.8769 1.25529V7.49531H10.875Z" fill="var(--fill-0, #747474)"/>
</svg>
